<svg xmlns="http://www.w3.org/2000/svg" viewBox="0 0 48 48" aria-hidden="true">
  <path fill="#b5a5c4" d="m4 12 39-3-1 31-37 3Z"/>
  <defs>
    <pattern id="stripes" width="39" height="4" patternUnits="userSpaceOnUse"><path fill="#BE3341" d="M0 0h39v2H0Z"/><path fill="#FFF9EF" d="M0 2h39v2H0Z"/></pattern>
    <path id="star" fill="#FFF9EF" d="M0-.65.19-.2.68-.2.3.1.45.6 0 .3-.45.6-.3.1-.68-.2-.19-.2Z"/>
    <g id="six"><use href="#star" x="1.5"/><use href="#star" x="4.5"/><use href="#star" x="7.5"/><use href="#star" x="10.5"/><use href="#star" x="13.5"/><use href="#star" x="16.5"/></g>
    <g id="five"><use href="#star" x="3"/><use href="#star" x="6"/><use href="#star" x="9"/><use href="#star" x="12"/><use href="#star" x="15"/></g>
  </defs>
  <g transform="translate(4 9) skewY(-4)">
    <path fill="url(#stripes)" d="M0 0h39v26H0Z"/>
    <path fill="#333C88" d="M0 0h18v14H0Z"/>
    <use href="#six" y="1.4"/><use href="#five" y="2.8"/><use href="#six" y="4.2"/><use href="#five" y="5.6"/><use href="#six" y="7"/><use href="#five" y="8.4"/><use href="#six" y="9.8"/><use href="#five" y="11.2"/><use href="#six" y="12.6"/>
    <path fill="#fff" opacity=".18" d="M0 0h39L0 26Z"/>
  </g>
</svg>
